<?xml version="1.0" encoding="utf-8"?>
<!-- Generator: Adobe Illustrator 20.0.0, SVG Export Plug-In . SVG Version: 6.00 Build 0)  -->
<svg version="1.1" id="Layer_1" xmlns="http://www.w3.org/2000/svg" xmlns:xlink="http://www.w3.org/1999/xlink" x="0px" y="0px"
	 viewBox="0 0 30 30" style="enable-background:new 0 0 30 30;" xml:space="preserve">
<style type="text/css">
	.st0{fill:#FFFFFF;}
	.st1{opacity:0.25;fill:url(#SVGID_1_);}
	.st2{fill:#04213E;}
	.st3{fill:none;}
	.st4{opacity:0.24;fill:#5183A0;}
	.st5{fill:#3A4245;}
	.st6{opacity:0.37;fill:#5183A0;}
	.st7{fill:#566C8D;}
	.st8{opacity:0.13;}
	.st9{fill-rule:evenodd;clip-rule:evenodd;fill:#3A4245;}
	.st10{fill:#4E5B6C;}
	.st11{fill:#4679A7;}
	.st12{fill:none;stroke:#55A0CD;stroke-width:0.5;stroke-miterlimit:10;}
	.st13{clip-path:url(#SVGID_5_);fill:#295882;}
	.st14{opacity:0.13;clip-path:url(#SVGID_7_);}
	.st15{opacity:0.25;clip-path:url(#SVGID_9_);fill:url(#SVGID_10_);enable-background:new    ;}
	.st16{opacity:0.28;clip-path:url(#SVGID_12_);}
	.st17{opacity:0.28;clip-path:url(#SVGID_14_);}
	.st18{clip-path:url(#SVGID_16_);fill:none;stroke:#04213E;stroke-width:0.5;stroke-miterlimit:10;}
	.st19{clip-path:url(#SVGID_18_);fill:none;stroke:#04213E;stroke-width:0.5;stroke-miterlimit:10;}
	.st20{clip-path:url(#SVGID_20_);fill:none;stroke:#04213E;stroke-width:0.5;stroke-miterlimit:10;}
	.st21{opacity:0.28;clip-path:url(#SVGID_22_);}
	.st22{opacity:0.28;clip-path:url(#SVGID_24_);}
	.st23{opacity:0.28;clip-path:url(#SVGID_26_);}
	.st24{opacity:0.28;clip-path:url(#SVGID_28_);}
	.st25{opacity:0.28;clip-path:url(#SVGID_30_);}
	.st26{opacity:0.28;clip-path:url(#SVGID_32_);}
	.st27{opacity:0.28;clip-path:url(#SVGID_34_);}
	.st28{opacity:0.28;clip-path:url(#SVGID_36_);}
	.st29{opacity:0.28;clip-path:url(#SVGID_38_);}
	.st30{opacity:0.28;clip-path:url(#SVGID_40_);}
	.st31{fill:#D4FF9B;}
	.st32{opacity:0.1;fill:#5183A0;}
	.st33{fill:#4579A7;}
	.st34{fill:#88D157;}
	.st35{fill:#2B3646;}
	.st36{fill:#467AA6;}
	.st37{opacity:0.13;clip-path:url(#SVGID_42_);}
	.st38{opacity:0.25;clip-path:url(#SVGID_42_);fill:url(#SVGID_43_);}
	.st39{opacity:0.63;fill:none;stroke:#FFFFFF;stroke-miterlimit:10;}
	.st40{fill:none;stroke:#D4FF9B;stroke-miterlimit:10;}
	.st41{fill:none;stroke:#D4FF9B;stroke-width:0.75;stroke-miterlimit:10;}
	.st42{opacity:0.62;fill:#4579A7;}
	.st43{fill-rule:evenodd;clip-rule:evenodd;fill:#147FC3;}
	.st44{fill:#147FC3;}
</style>
<g>
	<g>
		<path class="st0" d="M16.6,28.9c-0.8,0.8-2.1,0.8-2.9,0L1.1,16.4c-0.8-0.8-0.8-2.1,0-2.9L13.6,1c0.8-0.8,2.1-0.8,2.9,0L29,13.5
			c0.8,0.8,0.8,2.1,0,2.9L16.6,28.9z"/>
		<g>
			<g>
				<path class="st43" d="M15.4,3.2c1.3,0,2.5,0.1,3.7,0.4L16.6,1c-0.8-0.8-2.1-0.8-2.9,0l-3.3,3.3C11.8,3.5,13.5,3.2,15.4,3.2z"/>
			</g>
			<g>
				<path class="st43" d="M4.3,15.4c0-2.5,0.5-4.7,1.5-6.6l-4.7,4.7c-0.8,0.8-0.8,2.1,0,2.9L5,20.2C4.5,18.8,4.3,17.2,4.3,15.4z"/>
			</g>
			<g>
				<path class="st43" d="M29,13.5l-7-7l-0.7,1.9C21.3,8.8,21.1,9,20.9,9c-0.1,0-0.3-0.1-0.4-0.1c-1.8-0.8-3.2-1.1-4.7-1.1
					c-3.5,0-5.7,2.7-5.7,7.6c0,5.3,2.5,7.6,5.8,7.6c1.6,0,2.9-0.3,4.5-0.9c0.2-0.1,0.4-0.1,0.5-0.1c0.3,0,0.5,0.1,0.6,0.5l0.4,1.3
					l7.1-7.1C29.8,15.6,29.8,14.3,29,13.5z"/>
			</g>
			<g>
				<path class="st43" d="M15,27.4c-1.2,0-2.3-0.1-3.3-0.4l1.9,1.9c0.8,0.8,2.1,0.8,2.9,0l1.9-1.9C17.4,27.2,16.3,27.4,15,27.4z"/>
			</g>
		</g>
	</g>
</g>
</svg>
